<?xml version="1.0" encoding="UTF-8"?><svg id="Layer_1" xmlns="http://www.w3.org/2000/svg" viewBox="0 0 601 341"><defs><style>.cls-1{letter-spacing:.02em;}.cls-2{stroke-linecap:square;}.cls-2,.cls-3{fill:none;stroke:#000;stroke-miterlimit:10;stroke-width:2px;}.cls-4{font-family:YuGothic-Light, 'Yu Gothic';font-weight:300;}.cls-4,.cls-5{font-size:60px;}.cls-6{letter-spacing:-.02em;}.cls-5{font-family:Bahnschrift-SemiBold, Bahnschrift;font-variation-settings:'wght' 600, 'wdth' 100;font-weight:600;}.cls-7{letter-spacing:0em;}</style></defs><text class="cls-5" transform="translate(50.6 191.52)"><tspan class="cls-1" x="0" y="0">T</tspan><tspan class="cls-6" x="30.06" y="0">R</tspan><tspan class="cls-7" x="68" y="0">OP</tspan><tspan x="142.91" y="0">HIC</tspan></text><polygon class="cls-3" points="329.66 148.18 342.77 170.89 355.88 193.59 329.66 193.59 303.45 193.59 316.55 170.89 329.66 148.18"/><line class="cls-2" x1="330.08" y1="174.88" x2="330.08" y2="192.86"/><path d="m329.79,175.52c0-8.46,6.26-15.33,13.98-15.33h8.26c0,8.46-6.26,15.33-13.98,15.33h-8.26Z"/><path d="m330.28,175.52c0-8.46-6.26-15.33-13.98-15.33h-8.26c0,8.46,6.26,15.33,13.98,15.33h8.26Z"/><text class="cls-4" transform="translate(367.65 194.15)"><tspan x="0" y="0">TERR</tspan></text><polygon class="cls-3" points="535.17 146.86 542.53 166.08 549.9 185.3 535.17 185.3 520.43 185.3 527.8 166.08 535.17 146.86"/><line class="cls-2" x1="535.17" y1="185.68" x2="535.17" y2="192.86"/></svg>